<svg width="692" height="127" viewBox="0 0 692 127" fill="none" xmlns="http://www.w3.org/2000/svg">
<path d="M52.7134 124.835V90.4115C52.7134 87.27 52.7134 84.5278 52.7134 82.185C52.7134 79.7889 52.7134 77.7922 52.7134 76.1948C52.7134 74.1182 52.5803 71.9618 52.3141 69.7254C52.0478 67.4359 51.4621 65.3327 50.5569 63.4158C49.6518 61.499 48.2407 59.9548 46.3239 58.7834C44.4603 57.5588 41.8779 56.9464 38.5766 56.9464C35.3819 56.9464 32.6663 57.612 30.43 58.9432C28.2469 60.2211 26.4366 61.9516 24.9989 64.1346C23.6145 66.2645 22.6029 68.7138 21.9639 71.4826C21.325 74.1981 21.0055 76.9935 21.0055 79.8688L13.977 75.1565C13.977 68.1813 15.2816 61.9516 17.8906 56.4672C20.4997 50.9829 24.2002 46.6434 28.9924 43.4486C33.8377 40.2006 39.5617 38.5766 46.1642 38.5766C52.9796 38.5766 58.3841 40.0143 62.3775 42.8895C66.371 45.7116 69.2196 49.5453 70.9235 54.3906C72.6806 59.236 73.5592 64.6671 73.5592 70.6839C73.5592 72.9202 73.5592 75.902 73.5592 79.6292C73.5592 83.3031 73.5592 87.6427 73.5592 92.6478V124.835H52.7134ZM0 124.835V40.0143H21.0055V124.835H0ZM105.107 124.835V90.4913C105.107 87.1368 105.107 84.2882 105.107 81.9454C105.107 79.6026 105.107 77.6325 105.107 76.0351C105.107 73.7988 104.974 71.5624 104.708 69.3261C104.442 67.0365 103.856 64.9866 102.951 63.1762C102.046 61.3126 100.635 59.8217 98.7178 58.7036C96.801 57.5321 94.1919 56.9464 90.8907 56.9464C87.6427 56.9464 84.9005 57.5854 82.6642 58.8633C80.4811 60.1412 78.724 61.8451 77.3929 63.9749C76.0617 66.1047 75.0767 68.5008 74.4377 71.1631C73.852 73.8254 73.5592 76.4877 73.5592 79.15L66.5307 74.5176C66.5307 67.7554 67.8086 61.6587 70.3644 56.2276C72.9202 50.7965 76.5942 46.5103 81.3863 43.3687C86.1784 40.174 91.8757 38.5766 98.4782 38.5766C105.134 38.5766 110.485 39.9344 114.532 42.6499C118.579 45.3655 121.507 49.0927 123.317 53.8316C125.181 58.5172 126.113 63.8684 126.113 69.8852C126.113 72.228 126.113 75.2098 126.113 78.8305C126.113 82.4512 126.113 86.7375 126.113 91.6894V124.835H105.107Z" fill="black"/>
<path d="M147.52 124.835V40.0143H168.286V124.835H147.52ZM157.983 24.36C154.575 24.36 151.593 23.4548 149.038 21.6444C146.535 19.7808 145.284 17.1984 145.284 13.8972C145.284 10.6492 146.535 8.11999 149.038 6.30963C151.593 4.49927 154.575 3.59409 157.983 3.59409C161.337 3.59409 164.266 4.49927 166.769 6.30963C169.271 8.11999 170.522 10.6492 170.522 13.8972C170.522 17.1984 169.271 19.7808 166.769 21.6444C164.266 23.4548 161.337 24.36 157.983 24.36Z" fill="black"/>
<path d="M224.963 126.592C219.905 126.592 215.086 126.033 210.507 124.915C205.981 123.797 201.934 122.119 198.367 119.883C194.852 117.647 192.057 114.878 189.98 111.577C187.957 108.222 186.945 104.362 186.945 99.9957C186.945 99.6762 186.945 99.3568 186.945 99.0373C186.945 98.7178 186.945 98.425 186.945 98.1587H207.871C207.871 98.425 207.871 98.6646 207.871 98.8776C207.871 99.0373 207.871 99.2769 207.871 99.5964C207.871 103.057 209.442 105.666 212.583 107.424C215.778 109.127 220.118 109.979 225.602 109.979C228.584 109.979 231.379 109.66 233.988 109.021C236.65 108.382 238.78 107.397 240.378 106.066C242.028 104.735 242.854 103.031 242.854 100.954C242.854 97.5997 241.123 95.2036 237.662 93.766C234.254 92.3283 228.876 91.0238 221.529 89.8524C217.482 89.1602 213.488 88.2284 209.548 87.057C205.608 85.8856 202.014 84.3148 198.766 82.3447C195.571 80.3746 192.989 77.9253 191.019 74.9968C189.102 72.0683 188.143 68.5008 188.143 64.2944C188.143 58.7036 189.794 54.0179 193.095 50.2375C196.45 46.4038 200.922 43.5019 206.513 41.5318C212.157 39.5617 218.36 38.5766 225.123 38.5766C231.619 38.5766 237.662 39.6415 243.253 41.7714C248.844 43.9012 253.343 46.9628 256.751 50.9563C260.212 54.9497 261.942 59.7685 261.942 65.4125C261.942 65.6255 261.942 65.8651 261.942 66.1314C261.942 66.3443 261.942 66.5307 261.942 66.6904H241.176C241.176 66.5307 241.176 66.371 241.176 66.2112C241.176 66.0515 241.176 65.8651 241.176 65.6521C241.176 63.2028 240.404 61.2061 238.86 59.662C237.316 58.1179 235.319 56.9731 232.87 56.2276C230.421 55.4822 227.838 55.1095 225.123 55.1095C222.727 55.1095 220.251 55.3757 217.695 55.9081C215.139 56.3874 213.009 57.2659 211.305 58.5438C209.601 59.7685 208.75 61.499 208.75 63.7353C208.75 65.8651 209.628 67.5956 211.385 68.9268C213.142 70.2579 215.592 71.3761 218.733 72.2812C221.875 73.1332 225.495 73.9053 229.595 74.5975C233.482 75.2364 237.396 76.115 241.336 77.2331C245.329 78.3513 248.977 79.8422 252.278 81.7058C255.579 83.5694 258.242 86.0187 260.265 89.0537C262.341 92.0355 263.38 95.7361 263.38 100.155C263.38 104.841 262.315 108.835 260.185 112.136C258.055 115.437 255.153 118.179 251.479 120.362C247.859 122.492 243.759 124.063 239.18 125.075C234.6 126.086 229.862 126.592 224.963 126.592Z" fill="black"/>
<path d="M311.377 126.592C305.041 126.592 299.477 125.607 294.685 123.637C289.892 121.614 286.139 118.712 283.423 114.931C280.708 111.151 279.35 106.598 279.35 101.274C279.35 95.4698 280.921 90.7043 284.062 86.9771C287.257 83.1966 291.543 80.2948 296.921 78.2714C302.299 76.1948 308.262 74.8637 314.812 74.278C324.502 73.3195 331.265 72.4144 335.098 71.5624C338.985 70.6573 340.929 69.2196 340.929 67.2495C340.929 67.1963 340.929 67.1696 340.929 67.1696C340.929 67.1164 340.929 67.0898 340.929 67.0898C340.929 63.3626 339.251 60.4873 335.897 58.464C332.542 56.4406 327.804 55.4289 321.68 55.4289C315.237 55.4289 310.286 56.5737 306.825 58.8633C303.417 61.0996 301.713 64.6671 301.713 69.5657H280.947C280.947 62.91 282.704 57.2925 286.219 52.7134C289.786 48.081 294.658 44.5668 300.835 42.1707C307.011 39.7747 314.013 38.5766 321.84 38.5766C329.135 38.5766 335.817 39.6682 341.887 41.8512C347.957 44.0343 352.829 47.3356 356.503 51.755C360.177 56.1744 362.014 61.6853 362.014 68.2878C362.014 69.406 362.014 70.5241 362.014 71.6423C362.014 72.7605 362.014 73.8786 362.014 74.9968V106.944C362.014 108.968 362.067 110.964 362.174 112.934C362.333 114.851 362.626 116.582 363.052 118.126C363.585 119.83 364.224 121.267 364.969 122.439C365.715 123.61 366.3 124.409 366.726 124.835H345.96C345.588 124.462 345.055 123.743 344.363 122.678C343.724 121.56 343.138 120.282 342.606 118.845C342.073 117.247 341.674 115.544 341.408 113.733C341.142 111.87 341.008 109.82 341.008 107.583L345.162 110.459C343.564 113.707 341.115 116.555 337.814 119.004C334.566 121.401 330.679 123.264 326.153 124.595C321.627 125.926 316.702 126.592 311.377 126.592ZM316.489 110.059C320.855 110.059 324.902 109.314 328.629 107.823C332.356 106.332 335.364 104.042 337.654 100.954C339.944 97.8126 341.088 93.7926 341.088 88.894V77.5526L346.2 83.3031C342.792 84.581 338.692 85.646 333.9 86.4979C329.108 87.2966 324.263 87.9355 319.364 88.4147C313.081 89.0005 308.342 90.092 305.147 91.6894C302.006 93.2867 300.435 95.8958 300.435 99.5165C300.435 103.031 301.766 105.666 304.429 107.424C307.091 109.181 311.111 110.059 316.489 110.059Z" fill="black"/>
<path d="M397.091 0V124.835H387.347V0H397.091Z" fill="black"/>
<path d="M455.429 126.352C448.933 126.352 443.263 125.367 438.417 123.397C433.572 121.427 429.818 118.579 427.156 114.851C424.547 111.071 423.242 106.518 423.242 101.194C423.242 95.8159 424.627 91.3433 427.395 87.7758C430.164 84.1551 434.104 81.333 439.216 79.3097C444.381 77.2864 450.477 75.9286 457.506 75.2364C468.315 74.1182 476.062 73.0001 480.748 71.8819C485.487 70.7105 487.856 68.8469 487.856 66.2911C487.856 66.1314 487.856 65.9716 487.856 65.8119C487.856 65.5989 487.856 65.3859 487.856 65.1729C487.856 59.6886 485.62 55.4289 481.147 52.3939C476.674 49.3589 470.311 47.8414 462.058 47.8414C453.433 47.8414 446.697 49.5453 441.852 52.953C437.059 56.3607 434.663 61.4191 434.663 68.1281H424.919C424.919 62.0048 426.464 56.7601 429.552 52.3939C432.64 47.9745 436.98 44.62 442.57 42.3305C448.161 39.9876 454.684 38.8162 462.138 38.8162C468.847 38.8162 474.891 39.8545 480.268 41.9311C485.646 44.0077 489.906 47.0427 493.047 51.0362C496.242 54.9763 497.84 59.8483 497.84 65.6521C497.84 66.7703 497.84 67.8885 497.84 69.0066C497.84 70.0715 497.84 71.1631 497.84 72.2812V109.82C497.84 111.63 497.919 113.36 498.079 115.011C498.239 116.662 498.479 118.099 498.798 119.324C499.277 120.868 499.783 122.093 500.316 122.998C500.848 123.903 501.274 124.515 501.593 124.835H491.61C491.397 124.622 491.051 124.063 490.572 123.158C490.092 122.199 489.613 121.081 489.134 119.803C488.708 118.472 488.415 116.981 488.255 115.331C488.096 113.68 488.016 111.683 488.016 109.34L489.613 110.538C487.909 113.68 485.433 116.449 482.185 118.845C478.937 121.188 475.05 123.025 470.524 124.356C465.999 125.687 460.967 126.352 455.429 126.352ZM456.947 117.487C462.697 117.487 467.889 116.555 472.521 114.692C477.207 112.775 480.934 110.059 483.703 106.545C486.472 102.977 487.856 98.6646 487.856 93.6062V73.7988L490.012 77.4727C486.924 79.0168 482.718 80.2681 477.393 81.2266C472.069 82.1317 466.291 82.8772 460.062 83.4629C451.276 84.3148 444.594 85.9921 440.015 88.4946C435.489 90.9972 433.226 95.0705 433.226 100.715C433.226 106.146 435.222 110.299 439.216 113.174C443.209 116.049 449.12 117.487 456.947 117.487Z" fill="black"/>
<path d="M563.726 126.352C557.23 126.352 551.214 124.782 545.676 121.64C540.138 118.499 535.666 114.239 532.258 108.861C528.904 103.483 527.226 97.4399 527.226 90.7309C527.226 90.5712 527.226 90.4381 527.226 90.3316C527.226 90.2251 527.226 90.1186 527.226 90.0121L534.574 89.8524C534.574 89.9589 534.574 90.0654 534.574 90.1719C534.574 90.2784 534.574 90.3848 534.574 90.4913C534.574 95.2835 535.852 99.7029 538.408 103.75C541.017 107.796 544.425 111.018 548.631 113.414C552.891 115.81 557.497 117.008 562.448 117.008C570.648 117.008 577.384 114.106 582.655 108.302C587.98 102.445 590.642 93.8192 590.642 82.4246C590.642 70.9767 588.006 62.3509 582.735 56.5471C577.464 50.7433 570.702 47.8414 562.448 47.8414C557.497 47.8414 552.891 49.0394 548.631 51.4355C544.425 53.8316 541.017 57.0263 538.408 61.0198C535.852 65.0132 534.574 69.4326 534.574 74.278L527.226 74.0384C527.226 67.3294 528.904 61.3126 532.258 55.988C535.666 50.6634 540.138 46.4836 545.676 43.4486C551.214 40.3604 557.23 38.8162 563.726 38.8162C570.595 38.8162 576.825 40.5201 582.416 43.9278C588.06 47.2823 592.532 52.2076 595.834 58.7036C599.135 65.1996 600.785 73.1066 600.785 82.4246C600.785 91.8491 599.135 99.836 595.834 106.385C592.586 112.934 588.166 117.913 582.575 121.321C576.985 124.675 570.702 126.352 563.726 126.352ZM524.591 124.835V0H534.574V124.835H524.591Z" fill="black"/>
<path d="M656.461 126.352C651.35 126.352 646.691 125.82 642.484 124.755C638.278 123.69 634.657 122.146 631.622 120.123C628.587 118.046 626.218 115.544 624.514 112.615C622.863 109.633 622.011 106.225 621.958 102.392C621.905 101.913 621.878 101.433 621.878 100.954C621.878 100.422 621.878 99.9691 621.878 99.5964H631.862C631.862 99.9691 631.862 100.342 631.862 100.715C631.862 101.034 631.862 101.46 631.862 101.992C632.022 106.891 634.258 110.698 638.571 113.414C642.937 116.076 648.954 117.407 656.621 117.407C661.52 117.407 665.806 116.875 669.48 115.81C673.207 114.692 676.136 113.068 678.266 110.938C680.396 108.755 681.46 106.119 681.46 103.031C681.46 97.8659 679.224 94.1919 674.751 92.0088C670.332 89.7725 663.809 87.9089 655.184 86.418C650.711 85.6726 646.531 84.7142 642.644 83.5427C638.811 82.3181 635.429 80.8006 632.501 78.9902C629.626 77.1266 627.363 74.8104 625.712 72.0416C624.061 69.2729 623.236 65.945 623.236 62.058C623.236 57.1062 624.727 52.8998 627.709 49.4388C630.691 45.9778 634.684 43.3421 639.689 41.5318C644.747 39.7214 650.312 38.8162 656.382 38.8162C662.398 38.8162 667.909 39.748 672.914 41.6116C677.973 43.422 682.019 46.1375 685.055 49.7583C688.09 53.379 689.607 57.9581 689.607 63.4957C689.607 63.7087 689.607 63.9749 689.607 64.2944C689.607 64.6138 689.607 64.9333 689.607 65.2528H679.703C679.703 64.9866 679.703 64.747 679.703 64.534C679.703 64.2678 679.703 64.0281 679.703 63.8152C679.703 59.9282 678.612 56.8133 676.429 54.4705C674.246 52.1277 671.397 50.4238 667.883 49.3589C664.369 48.2407 660.615 47.6817 656.621 47.6817C652.681 47.6817 648.901 48.1609 645.28 49.1193C641.659 50.0777 638.704 51.5952 636.414 53.6718C634.178 55.6952 633.06 58.3841 633.06 61.7386C633.06 65.0931 634.125 67.8086 636.255 69.8852C638.385 71.9085 641.393 73.5592 645.28 74.8371C649.167 76.0617 653.693 77.1532 658.858 78.1117C663.596 78.9636 667.936 80.0019 671.876 81.2266C675.816 82.398 679.224 83.8888 682.099 85.6992C684.975 87.5096 687.211 89.7991 688.808 92.5679C690.406 95.2835 691.204 98.6113 691.204 102.552C691.204 106.438 690.326 109.873 688.569 112.855C686.812 115.783 684.336 118.259 681.141 120.282C677.999 122.306 674.326 123.823 670.119 124.835C665.913 125.847 661.36 126.352 656.461 126.352Z" fill="black"/>
</svg>
