<svg width="692" height="375" viewBox="0 0 692 375" fill="none" xmlns="http://www.w3.org/2000/svg">
<path d="M253.259 0C260.391 0 266.173 5.78135 266.173 12.9131V56.8718C266.173 64.5186 269.211 71.8522 274.618 77.2594C280.025 82.6671 287.359 85.7051 295.007 85.7051H341.071C348.47 85.7051 355.567 82.7656 360.799 77.5332C366.032 72.3008 368.971 65.2042 368.971 57.8046V12.9131C368.971 5.78137 374.753 2.43028e-05 381.884 0H441.744C448.875 0 454.658 5.78135 454.658 12.9131V56.452C454.658 64.2106 457.74 71.6515 463.226 77.1378C468.712 82.6246 476.154 85.707 483.913 85.707H557.44C564.571 85.7072 570.353 91.4886 570.353 98.6201V158.48C570.353 165.612 564.572 171.393 557.44 171.394H476.159C469.027 171.394 463.245 165.612 463.245 158.48V103.448C463.245 98.7372 461.373 94.2196 458.043 90.8887C454.712 87.5578 450.194 85.6865 445.483 85.6865H379.479C374.421 85.6865 369.57 87.6957 365.994 91.272C362.418 94.8483 360.409 99.6988 360.409 104.756V158.479C360.409 165.61 354.627 171.392 347.496 171.392H287.636C280.505 171.392 274.723 165.61 274.723 158.479V103.804C274.723 98.9984 272.814 94.39 269.416 90.9923C266.019 87.5951 261.411 85.6865 256.606 85.6865H197.222C190.509 85.6865 184.071 88.3531 179.324 93.0998C174.577 97.8468 171.91 104.285 171.91 110.999V158.48C171.91 165.612 166.127 171.394 158.996 171.394H133.411C126.279 171.393 120.498 165.612 120.498 158.48V98.6201C120.498 91.4886 126.279 85.7072 133.411 85.707H158.8C164.551 85.707 170.068 83.4221 174.135 79.355C178.202 75.2878 180.487 69.7716 180.487 64.0198V12.9131C180.487 5.78139 186.268 6.89932e-05 193.4 0H253.259Z" fill="black"/>
<path d="M656.461 374.582C651.35 374.582 646.691 374.05 642.484 372.985C638.278 371.92 634.657 370.376 631.622 368.353C628.587 366.276 626.218 363.774 624.514 360.845C622.863 357.863 622.011 354.456 621.958 350.622C621.905 350.143 621.878 349.663 621.878 349.184C621.878 348.652 621.878 348.199 621.878 347.826H631.862C631.862 348.199 631.862 348.572 631.862 348.945C631.862 349.264 631.862 349.69 631.862 350.222C632.022 355.121 634.258 358.928 638.571 361.644C642.937 364.306 648.954 365.637 656.621 365.637C661.52 365.637 665.806 365.105 669.48 364.04C673.207 362.922 676.136 361.298 678.266 359.168C680.396 356.985 681.46 354.349 681.46 351.261C681.46 346.096 679.224 342.422 674.751 340.239C670.332 338.003 663.809 336.139 655.184 334.648C650.711 333.903 646.531 332.944 642.644 331.773C638.811 330.548 635.429 329.031 632.501 327.22C629.626 325.357 627.363 323.04 625.712 320.272C624.061 317.503 623.236 314.175 623.236 310.288C623.236 305.336 624.727 301.13 627.709 297.669C630.69 294.208 634.684 291.572 639.689 289.762C644.747 287.951 650.312 287.046 656.382 287.046C662.398 287.046 667.909 287.978 672.914 289.842C677.973 291.652 682.02 294.368 685.055 297.988C688.09 301.609 689.607 306.188 689.607 311.726C689.607 311.939 689.607 312.205 689.607 312.524C689.607 312.844 689.607 313.163 689.607 313.483H679.703C679.703 313.217 679.703 312.977 679.703 312.764C679.703 312.498 679.703 312.258 679.703 312.045C679.703 308.158 678.612 305.043 676.429 302.701C674.246 300.358 671.397 298.654 667.883 297.589C664.369 296.471 660.615 295.912 656.621 295.912C652.681 295.912 648.901 296.391 645.28 297.349C641.659 298.308 638.704 299.825 636.414 301.902C634.178 303.925 633.06 306.614 633.06 309.969C633.06 313.323 634.125 316.039 636.255 318.115C638.385 320.139 641.393 321.789 645.28 323.067C649.167 324.292 653.693 325.383 658.858 326.342C663.596 327.194 667.936 328.232 671.876 329.457C675.816 330.628 679.224 332.119 682.099 333.929C684.975 335.74 687.211 338.029 688.808 340.798C690.406 343.513 691.204 346.841 691.204 350.782C691.204 354.668 690.326 358.103 688.569 361.085C686.812 364.013 684.336 366.489 681.141 368.512C678 370.536 674.326 372.053 670.119 373.065C665.913 374.077 661.36 374.582 656.461 374.582Z" fill="black"/>
<path d="M563.726 374.582C557.23 374.582 551.214 373.012 545.676 369.87C540.138 366.729 535.666 362.469 532.258 357.091C528.904 351.713 527.226 345.67 527.226 338.961C527.226 338.801 527.226 338.668 527.226 338.562C527.226 338.455 527.226 338.349 527.226 338.242L534.574 338.082C534.574 338.189 534.574 338.295 534.574 338.402C534.574 338.508 534.574 338.615 534.574 338.721C534.574 343.513 535.852 347.933 538.408 351.98C541.017 356.026 544.425 359.248 548.631 361.644C552.891 364.04 557.497 365.238 562.448 365.238C570.648 365.238 577.384 362.336 582.655 356.532C587.98 350.675 590.642 342.049 590.642 330.655C590.642 319.207 588.006 310.581 582.735 304.777C577.464 298.973 570.702 296.071 562.448 296.071C557.497 296.071 552.891 297.269 548.631 299.666C544.425 302.062 541.017 305.256 538.408 309.25C535.852 313.243 534.574 317.663 534.574 322.508L527.226 322.268C527.226 315.559 528.904 309.543 532.258 304.218C535.666 298.893 540.138 294.714 545.676 291.679C551.214 288.59 557.23 287.046 563.726 287.046C570.595 287.046 576.825 288.75 582.416 292.158C588.06 295.512 592.532 300.438 595.834 306.934C599.135 313.43 600.785 321.337 600.785 330.655C600.785 340.079 599.135 348.066 595.834 354.615C592.586 361.164 588.166 366.143 582.575 369.551C576.985 372.905 570.702 374.582 563.726 374.582ZM524.591 373.065V248.23H534.574V373.065H524.591Z" fill="black"/>
<path d="M455.429 374.582C448.933 374.582 443.263 373.597 438.417 371.627C433.572 369.657 429.818 366.809 427.156 363.081C424.547 359.301 423.242 354.748 423.242 349.424C423.242 344.046 424.627 339.573 427.395 336.006C430.164 332.385 434.104 329.563 439.216 327.54C444.381 325.516 450.477 324.159 457.506 323.466C468.315 322.348 476.062 321.23 480.748 320.112C485.487 318.941 487.856 317.077 487.856 314.521C487.856 314.361 487.856 314.202 487.856 314.042C487.856 313.829 487.856 313.616 487.856 313.403C487.856 307.919 485.62 303.659 481.147 300.624C476.674 297.589 470.312 296.071 462.058 296.071C453.433 296.071 446.697 297.775 441.852 301.183C437.059 304.591 434.663 309.649 434.663 316.358H424.919C424.919 310.235 426.464 304.99 429.552 300.624C432.64 296.205 436.98 292.85 442.57 290.56C448.161 288.218 454.684 287.046 462.138 287.046C468.847 287.046 474.891 288.085 480.268 290.161C485.646 292.238 489.906 295.273 493.047 299.266C496.242 303.206 497.84 308.078 497.84 313.882C497.84 315 497.84 316.118 497.84 317.237C497.84 318.302 497.84 319.393 497.84 320.511V358.05C497.84 359.86 497.919 361.59 498.079 363.241C498.239 364.892 498.479 366.329 498.798 367.554C499.277 369.098 499.783 370.323 500.316 371.228C500.848 372.133 501.274 372.745 501.593 373.065H491.61C491.397 372.852 491.051 372.293 490.572 371.388C490.092 370.429 489.613 369.311 489.134 368.033C488.708 366.702 488.415 365.211 488.255 363.561C488.096 361.91 488.016 359.913 488.016 357.57L489.613 358.768C487.909 361.91 485.433 364.679 482.185 367.075C478.937 369.418 475.05 371.255 470.524 372.586C465.999 373.917 460.967 374.582 455.429 374.582ZM456.947 365.717C462.697 365.717 467.889 364.785 472.521 362.922C477.207 361.005 480.934 358.289 483.703 354.775C486.472 351.208 487.856 346.895 487.856 341.836V322.029L490.012 325.703C486.924 327.247 482.718 328.498 477.393 329.457C472.069 330.362 466.291 331.107 460.062 331.693C451.276 332.545 444.594 334.222 440.015 336.725C435.489 339.227 433.226 343.301 433.226 348.945C433.226 354.376 435.223 358.529 439.216 361.404C443.209 364.279 449.12 365.717 456.947 365.717Z" fill="black"/>
<path d="M397.091 248.23V373.065H387.347V248.23H397.091Z" fill="black"/>
<path d="M311.377 374.822C305.041 374.822 299.477 373.837 294.685 371.867C289.892 369.844 286.139 366.942 283.423 363.161C280.708 359.381 279.35 354.828 279.35 349.504C279.35 343.7 280.921 338.934 284.062 335.207C287.257 331.427 291.543 328.525 296.921 326.501C302.299 324.425 308.262 323.094 314.812 322.508C324.502 321.55 331.264 320.644 335.098 319.792C338.985 318.887 340.929 317.45 340.929 315.48C340.929 315.426 340.929 315.4 340.929 315.4C340.929 315.346 340.929 315.32 340.929 315.32C340.929 311.593 339.251 308.717 335.897 306.694C332.542 304.671 327.803 303.659 321.68 303.659C315.237 303.659 310.286 304.804 306.825 307.093C303.417 309.33 301.713 312.897 301.713 317.796H280.947C280.947 311.14 282.704 305.523 286.219 300.943C289.786 296.311 294.658 292.797 300.834 290.401C307.011 288.005 314.013 286.807 321.84 286.807C329.135 286.807 335.817 287.898 341.887 290.081C347.957 292.264 352.829 295.566 356.503 299.985C360.177 304.404 362.014 309.915 362.014 316.518C362.014 317.636 362.014 318.754 362.014 319.872C362.014 320.99 362.014 322.109 362.014 323.227V355.174C362.014 357.198 362.067 359.194 362.174 361.164C362.333 363.081 362.626 364.812 363.052 366.356C363.585 368.06 364.224 369.497 364.969 370.669C365.715 371.84 366.3 372.639 366.726 373.065H345.96C345.588 372.692 345.055 371.973 344.363 370.908C343.724 369.79 343.138 368.512 342.606 367.075C342.073 365.477 341.674 363.774 341.408 361.963C341.142 360.1 341.008 358.05 341.008 355.813L345.162 358.689C343.564 361.937 341.115 364.785 337.814 367.234C334.566 369.631 330.679 371.494 326.153 372.825C321.627 374.156 316.702 374.822 311.377 374.822ZM316.489 358.289C320.855 358.289 324.902 357.544 328.629 356.053C332.356 354.562 335.364 352.272 337.654 349.184C339.944 346.043 341.088 342.023 341.088 337.124V325.783L346.2 331.533C342.792 332.811 338.692 333.876 333.9 334.728C329.108 335.527 324.263 336.166 319.364 336.645C313.081 337.23 308.342 338.322 305.147 339.919C302.006 341.517 300.435 344.126 300.435 347.747C300.435 351.261 301.766 353.896 304.429 355.654C307.091 357.411 311.111 358.289 316.489 358.289Z" fill="black"/>
<path d="M224.963 374.822C219.905 374.822 215.086 374.263 210.507 373.145C205.981 372.027 201.934 370.349 198.367 368.113C194.852 365.877 192.057 363.108 189.98 359.807C187.957 356.452 186.945 352.592 186.945 348.226C186.945 347.906 186.945 347.587 186.945 347.267C186.945 346.948 186.945 346.655 186.945 346.389H207.871C207.871 346.655 207.871 346.895 207.871 347.108C207.871 347.267 207.871 347.507 207.871 347.826C207.871 351.287 209.442 353.896 212.583 355.654C215.778 357.357 220.118 358.209 225.602 358.209C228.584 358.209 231.379 357.89 233.988 357.251C236.65 356.612 238.78 355.627 240.378 354.296C242.028 352.965 242.854 351.261 242.854 349.184C242.854 345.83 241.123 343.434 237.662 341.996C234.254 340.558 228.876 339.254 221.529 338.082C217.482 337.39 213.488 336.458 209.548 335.287C205.608 334.116 202.014 332.545 198.766 330.575C195.571 328.605 192.989 326.155 191.019 323.227C189.102 320.298 188.143 316.731 188.143 312.524C188.143 306.934 189.794 302.248 193.095 298.467C196.45 294.634 200.922 291.732 206.513 289.762C212.157 287.792 218.36 286.807 225.123 286.807C231.619 286.807 237.662 287.872 243.253 290.001C248.844 292.131 253.343 295.193 256.751 299.186C260.212 303.18 261.942 307.998 261.942 313.643C261.942 313.856 261.942 314.095 261.942 314.361C261.942 314.574 261.942 314.761 261.942 314.92H241.176C241.176 314.761 241.176 314.601 241.176 314.441C241.176 314.282 241.176 314.095 241.176 313.882C241.176 311.433 240.404 309.436 238.86 307.892C237.316 306.348 235.319 305.203 232.87 304.458C230.421 303.712 227.838 303.339 225.123 303.339C222.727 303.339 220.251 303.606 217.695 304.138C215.139 304.617 213.009 305.496 211.305 306.774C209.601 307.998 208.75 309.729 208.75 311.965C208.75 314.095 209.628 315.826 211.385 317.157C213.142 318.488 215.592 319.606 218.733 320.511C221.875 321.363 225.495 322.135 229.595 322.827C233.482 323.466 237.396 324.345 241.336 325.463C245.329 326.581 248.977 328.072 252.278 329.936C255.579 331.799 258.242 334.249 260.265 337.284C262.341 340.266 263.38 343.966 263.38 348.385C263.38 353.071 262.315 357.065 260.185 360.366C258.055 363.667 255.153 366.409 251.479 368.592C247.859 370.722 243.759 372.293 239.18 373.305C234.6 374.316 229.862 374.822 224.963 374.822Z" fill="black"/>
<path d="M147.52 373.065V288.244H168.286V373.065H147.52ZM157.983 272.59C154.575 272.59 151.593 271.685 149.038 269.874C146.535 268.011 145.284 265.428 145.284 262.127C145.284 258.879 146.535 256.35 149.038 254.54C151.593 252.729 154.575 251.824 157.983 251.824C161.337 251.824 164.266 252.729 166.769 254.54C169.271 256.35 170.522 258.879 170.522 262.127C170.522 265.428 169.271 268.011 166.769 269.874C164.266 271.685 161.337 272.59 157.983 272.59Z" fill="black"/>
<path d="M52.7134 373.065V338.641C52.7134 335.5 52.7134 332.758 52.7134 330.415C52.7134 328.019 52.7134 326.022 52.7134 324.425C52.7134 322.348 52.5803 320.192 52.3141 317.955C52.0478 315.666 51.4621 313.563 50.5569 311.646C49.6518 309.729 48.2407 308.185 46.3239 307.013C44.4603 305.789 41.8779 305.176 38.5766 305.176C35.3819 305.176 32.6663 305.842 30.43 307.173C28.2469 308.451 26.4366 310.182 24.9989 312.365C23.6145 314.494 22.6029 316.944 21.9639 319.713C21.325 322.428 21.0055 325.224 21.0055 328.099L13.977 323.387C13.977 316.411 15.2816 310.182 17.8906 304.697C20.4997 299.213 24.2002 294.873 28.9924 291.679C33.8377 288.431 39.5617 286.807 46.1642 286.807C52.9796 286.807 58.3841 288.244 62.3775 291.12C66.371 293.942 69.2196 297.775 70.9235 302.621C72.6806 307.466 73.5592 312.897 73.5592 318.914C73.5592 321.15 73.5592 324.132 73.5592 327.859C73.5592 331.533 73.5592 335.873 73.5592 340.878V373.065H52.7134ZM0 373.065V288.244H21.0055V373.065H0ZM105.107 373.065V338.721C105.107 335.367 105.107 332.518 105.107 330.175C105.107 327.833 105.107 325.862 105.107 324.265C105.107 322.029 104.974 319.792 104.708 317.556C104.442 315.267 103.856 313.217 102.951 311.406C102.046 309.543 100.635 308.052 98.7178 306.934C96.801 305.762 94.1919 305.176 90.8907 305.176C87.6427 305.176 84.9005 305.815 82.6642 307.093C80.4811 308.371 78.724 310.075 77.3929 312.205C76.0617 314.335 75.0767 316.731 74.4377 319.393C73.852 322.055 73.5592 324.718 73.5592 327.38L66.5307 322.748C66.5307 315.985 67.8086 309.889 70.3644 304.458C72.9202 299.027 76.5942 294.74 81.3863 291.599C86.1784 288.404 91.8757 286.807 98.4782 286.807C105.134 286.807 110.485 288.164 114.532 290.88C118.579 293.595 121.507 297.323 123.317 302.062C125.181 306.747 126.113 312.098 126.113 318.115C126.113 320.458 126.113 323.44 126.113 327.061C126.113 330.681 126.113 334.967 126.113 339.919V373.065H105.107Z" fill="black"/>
</svg>
