<svg width="511" height="195" viewBox="0 0 511 195" fill="none" xmlns="http://www.w3.org/2000/svg">
<path d="M150.809 0C158.91 8.80257e-05 165.476 6.56709 165.477 14.668V64.5942C165.477 73.2822 168.928 81.6144 175.071 87.758C181.215 93.9019 189.547 97.3535 198.236 97.3535H250.553C258.959 97.3535 267.021 94.0141 272.965 88.0698C278.91 82.1256 282.249 74.0634 282.249 65.657V14.668C282.249 6.56703 288.817 0 296.918 0H364.913C373.014 0 379.582 6.56704 379.582 14.668V64.1299C379.582 72.9414 383.082 81.3919 389.313 87.6226C395.544 93.8532 403.994 97.3535 412.806 97.3535H496.332C504.433 97.3537 511 103.92 511 112.021V180.018C511 188.119 504.433 194.685 496.332 194.686H404.003C395.902 194.686 389.335 188.119 389.335 180.018V117.508C389.335 112.157 387.209 107.026 383.426 103.242C379.642 99.4586 374.511 97.333 369.16 97.333H294.181C288.437 97.333 282.928 99.6146 278.867 103.676C274.805 107.738 272.522 113.247 272.522 118.991V180.018C272.522 188.118 265.955 194.685 257.854 194.686H189.858C181.757 194.686 175.191 188.119 175.19 180.018V117.907C175.19 112.45 173.023 107.217 169.165 103.359C165.306 99.5006 160.073 97.333 154.617 97.333H87.1435C79.5201 97.333 72.2089 100.361 66.8184 105.752C61.4278 111.143 58.3994 118.454 58.3994 126.077V180.018C58.3993 188.119 51.8324 194.685 43.7314 194.686H14.668C6.56711 194.685 0.000127117 188.118 0 180.018V112.021C6.74146e-05 103.921 6.56707 97.3538 14.668 97.3535H43.5015C50.0372 97.3535 56.3053 94.7572 60.9268 90.1357C65.5482 85.5143 68.1445 79.2462 68.1445 72.7105V14.668C68.1448 6.5671 74.7116 0.000106494 82.8125 0H150.809Z" fill="black"/>
</svg>
